<?xml version="1.0" encoding="UTF-8"?>
<mxfile host="app.diagrams.net" modified="8-add-3rd-microservice-inventory" agent="PlantUML Converter" version="1.0" etag="plantuml-diagram" type="device">
  <diagram id="plantuml-8-add-3rd-microservice-inventory" name="8-add-3rd-microservice-inventory">
    <mxGraphModel dx="1422" dy="794" grid="1" gridSize="10" guides="1" tooltips="1" connect="1" arrows="1" fold="1" page="1" pageScale="1" pageWidth="827" pageHeight="1169" math="0" shadow="0">
      <root>
        <mxCell id="0" />
        <mxCell id="1" parent="0" />
        <mxCell id="plantuml-container" value="" style="shape=image;html=1;verticalAlign=top;verticalLabelPosition=bottom;labelBackgroundColor=#ffffff;imageAspect=0;aspect=fixed;image=data:image/svg+xml,PHN2ZyB4bWxucz0iaHR0cDovL3d3dy53My5vcmcvMjAwMC9zdmciIHdpZHRoPSI0MDAiIGhlaWdodD0iMzAwIiB2aWV3Qm94PSIwIDAgNDAwIDMwMCI+CiAgPHJlY3Qgd2lkdGg9IjQwMCIgaGVpZ2h0PSIzMDAiIGZpbGw9IiNmOGY5ZmEiIHN0cm9rZT0iI2RlZTJlNiIvPgogIDx0ZXh0IHg9IjIwMCIgeT0iMTUwIiB0ZXh0LWFuY2hvcj0ibWlkZGxlIiBmb250LWZhbWlseT0iQXJpYWwiIGZvbnQtc2l6ZT0iMTQiIGZpbGw9IiM2Yzc1N2QiPgogICAgRGlhZ3JhbWEgUGxhbnRVTUw6IDgtYWRkLTNyZC1taWNyb3NlcnZpY2UtaW52ZW50b3J5CiAgPC90ZXh0PgogIDx0ZXh0IHg9IjIwMCIgeT0iMTcwIiB0ZXh0LWFuY2hvcj0ibWlkZGxlIiBmb250LWZhbWlseT0iQXJpYWwiIGZvbnQtc2l6ZT0iMTIiIGZpbGw9IiM2Yzc1N2QiPgogICAgKFNWRyBuw6NvIGRpc3BvbsOtdmVsIC0gdXNlIG8gY8OzZGlnbyBQbGFudFVNTCBpbmNvcnBvcmFkbykKICA8L3RleHQ+Cjwvc3ZnPg==;plantuml=QHN0YXJ0dW1sCmxlZnQgdG8gcmlnaHQgZGlyZWN0aW9uCiFpbmNsdWRlIGh0dHBzOi8vcmF3LmdpdGh1YnVzZXJjb250ZW50LmNvbS9wbGFudHVtbC1zdGRsaWIvQzQtUGxhbnRVTUwvbWFzdGVyL0M0X0NvbnRhaW5lci5wdW1sCnNraW5wYXJhbSBub2Rlc2VwIDEwCnNraW5wYXJhbSByYW5rc2VwIDEwCgpUSVRMRSBBUEkgR2F0ZXdheSDihpIgVXNlciwgT3JkZXIgJiBJbnZlbnRvcnkgU2VydmljZXMgd2l0aCBEZWRpY2F0ZWQgRGF0YWJhc2VzCgpQZXJzb24odXNlciwgIlVzZXIiLCAiU2VuZHMgQVBJIHJlcXVlc3RzIHZpYSBIVFRQL0pTT04iKQoKU3lzdGVtX0JvdW5kYXJ5KGFwcF9zeXN0ZW0sICJBcHBsaWNhdGlvbiBTeXN0ZW0iKSB7CiAgCiAgQ29udGFpbmVyKGFwaV9nYXRld2F5LCAiQVBJIEdhdGV3YXkiLCAiS29uZy9adXVsIiwgIlJvdXRlcyBhbmQgc2VjdXJlcyBpbmNvbWluZyB0cmFmZmljIikKCiAgU3lzdGVtX0JvdW5kYXJ5KG1pY3Jvc2VydmljZXMsICJNaWNyb3NlcnZpY2VzIikgewogICAgQ29udGFpbmVyKHVzZXJfc2VydmljZSwgIlVzZXIgU2VydmljZSIsICJTcHJpbmcgQm9vdCIsICJNYW5hZ2VzIHVzZXIgcHJvZmlsZXMgYW5kIGF1dGhlbnRpY2F0aW9uIikKICAgIENvbnRhaW5lckRiKHVzZXJfZGIsICJVc2VyIERhdGFiYXNlIiwgIlBvc3RncmVTUUwiLCAiU3RvcmVzIHVzZXIgZGF0YSIpCgogICAgQ29udGFpbmVyKG9yZGVyX3NlcnZpY2UsICJPcmRlciBTZXJ2aWNlIiwgIlNwcmluZyBCb290IiwgIkhhbmRsZXMgb3JkZXIgcHJvY2Vzc2luZyBhbmQgaGlzdG9yeSIpCiAgICBDb250YWluZXJEYihvcmRlcl9kYiwgIk9yZGVyIERhdGFiYXNlIiwgIlBvc3RncmVTUUwiLCAiU3RvcmVzIG9yZGVyIGRhdGEiKQoKICAgIENvbnRhaW5lcihpbnZlbnRvcnlfc2VydmljZSwgIkludmVudG9yeSBTZXJ2aWNlIiwgIlNwcmluZyBCb290IiwgIk1hbmFnZXMgc3RvY2sgbGV2ZWxzIGFuZCBwcm9kdWN0IGF2YWlsYWJpbGl0eSIpCiAgICBDb250YWluZXJEYihpbnZlbnRvcnlfZGIsICJJbnZlbnRvcnkgRGF0YWJhc2UiLCAiUG9zdGdyZVNRTCIsICJTdG9yZXMgaW52ZW50b3J5IGRhdGEiKQogIH0KfQoKUmVsKHVzZXIsIGFwaV9nYXRld2F5LCAiU2VuZHMgcmVxdWVzdHMgdG8iLCAiSFRUUC9KU09OIikKUmVsKGFwaV9nYXRld2F5LCB1c2VyX3NlcnZpY2UsICJSb3V0ZXMgdG8iLCAiSFRUUC9KU09OIikKUmVsKGFwaV9nYXRld2F5LCBvcmRlcl9zZXJ2aWNlLCAiUm91dGVzIHRvIiwgIkhUVFAvSlNPTiIpClJlbChhcGlfZ2F0ZXdheSwgaW52ZW50b3J5X3NlcnZpY2UsICJSb3V0ZXMgdG8iLCAiSFRUUC9KU09OIikKClJlbCh1c2VyX3NlcnZpY2UsIHVzZXJfZGIsICJSZWFkcy9Xcml0ZXMiLCAiSkRCQy9TUUwiKQpSZWwob3JkZXJfc2VydmljZSwgb3JkZXJfZGIsICJSZWFkcy9Xcml0ZXMiLCAiSkRCQy9TUUwiKQpSZWwoaW52ZW50b3J5X3NlcnZpY2UsIGludmVudG9yeV9kYiwgIlJlYWRzL1dyaXRlcyIsICJKREJDL1NRTCIpCkBlbmR1bWwK;" vertex="1" parent="1">
          <mxGeometry x="40" y="40" width="400" height="300" as="geometry" />
        </mxCell>
      </root>
    </mxGraphModel>
  </diagram>
</mxfile>